<svg width="36" height="27" viewBox="0 0 36 27" fill="none" xmlns="http://www.w3.org/2000/svg">
<path fill-rule="evenodd" clip-rule="evenodd" d="M13.7285 0.0148091H26.5078L29.4375 5.27919H35.4199C35.5753 5.27919 35.7244 5.34186 35.8342 5.45341C35.9441 5.56497 36.0059 5.71627 36.0059 5.87403V26.4111C36.0059 26.5688 35.9441 26.7201 35.8342 26.8317C35.7244 26.9432 35.5753 27.0059 35.4199 27.0059H0.585938C0.430537 27.0059 0.281502 26.9432 0.171617 26.8317C0.0617325 26.7201 0 26.5688 0 26.4111V5.86808C0 5.71032 0.0617325 5.55902 0.171617 5.44746C0.281502 5.33591 0.430537 5.27324 0.585938 5.27324H3.28418V3.39055H6.60937V5.27919H10.2305L12.4893 0.752417C12.9463 -0.169593 12.6973 0.0148091 13.7285 0.0148091V0.0148091ZM19.5234 9.42823C20.6568 9.42752 21.7648 9.76815 22.7073 10.407C23.6499 11.0459 24.3846 11.9543 24.8183 13.0172C25.2521 14.0801 25.3656 15.2498 25.1443 16.3782C24.923 17.5066 24.3769 18.543 23.5752 19.3562L23.5078 19.4186C22.8341 20.0814 22.0103 20.566 21.1089 20.8299C20.2075 21.0937 19.256 21.1287 18.3381 20.9318C17.4203 20.735 16.5641 20.3122 15.8448 19.7007C15.1256 19.0893 14.5653 18.3078 14.2132 17.425C13.8612 16.5422 13.7281 15.5851 13.8257 14.6379C13.9233 13.6907 14.2486 12.7823 14.773 11.9926C15.2974 11.2029 16.0048 10.556 16.8332 10.1089C17.6615 9.66174 18.5853 9.42801 19.5234 9.42823V9.42823ZM22.0898 12.6374C21.584 12.126 20.9407 11.7774 20.2406 11.6355C19.5405 11.4936 18.8147 11.5646 18.1542 11.8396C17.4937 12.1146 16.9278 12.5814 16.5274 13.1815C16.1271 13.7816 15.9101 14.4883 15.9036 15.2131C15.8972 15.9378 16.1015 16.6484 16.4911 17.2557C16.8807 17.863 17.4382 18.3402 18.0938 18.6272C18.7493 18.9143 19.4737 18.9986 20.1762 18.8696C20.8787 18.7405 21.5281 18.4039 22.043 17.9018L22.0898 17.8453C22.4272 17.5033 22.6948 17.0972 22.8774 16.6501C23.0599 16.203 23.1539 15.7238 23.1539 15.2399C23.1539 14.7559 23.0599 14.2767 22.8774 13.8296C22.6948 13.3826 22.4272 12.9764 22.0898 12.6344V12.6374ZM32.2471 7.87866C32.5889 7.87866 32.9231 7.98158 33.2074 8.17439C33.4916 8.36721 33.7132 8.64127 33.844 8.96192C33.9748 9.28257 34.0091 9.6354 33.9424 9.97579C33.8757 10.3162 33.7111 10.6289 33.4693 10.8743C33.2276 11.1197 32.9196 11.2868 32.5843 11.3545C32.249 11.4222 31.9014 11.3875 31.5856 11.2547C31.2698 11.1219 30.9998 10.8969 30.8099 10.6084C30.6199 10.3198 30.5186 9.98052 30.5186 9.63345C30.5186 9.16805 30.7007 8.72171 31.0248 8.39262C31.349 8.06354 31.7886 7.87866 32.2471 7.87866V7.87866ZM19.5264 6.45995C21.2374 6.45995 22.9101 6.97506 24.3328 7.94014C25.7555 8.90521 26.8644 10.2769 27.5192 11.8818C28.174 13.4866 28.3453 15.2526 28.0115 16.9563C27.6777 18.66 26.8537 20.225 25.6438 21.4533C24.4339 22.6816 22.8924 23.5181 21.2142 23.857C19.536 24.1959 17.7965 24.0219 16.2156 23.3572C14.6348 22.6924 13.2836 21.5667 12.333 20.1223C11.3824 18.678 10.875 16.9799 10.875 15.2428C10.875 12.9135 11.7865 10.6795 13.4089 9.0324C15.0314 7.38529 17.2319 6.45995 19.5264 6.45995V6.45995Z" fill="#FFF500"/>
</svg>
