<svg id="Layer_1" data-name="Layer 1" xmlns="http://www.w3.org/2000/svg" fill="#FFE600" viewBox="0 0 122.88 91.29"><defs><style>.cls-1{fill-rule:evenodd;}</style></defs><title>process</title><path class="cls-1" d="M2.17,38H22.66a2.18,2.18,0,0,1,2.17,2.17V80a2.18,2.18,0,0,1-2.17,2.18H2.17A2.18,2.18,0,0,1,0,80V40.18A2.18,2.18,0,0,1,2.17,38ZM29.83,78.48V41.56H46.44c7,1.26,14.08,5.08,21.12,9.51h12.9c5.84.35,8.89,6.27,3.22,10.16-4.52,3.31-10.49,3.13-16.6,2.58-4.22-.21-4.41,5.46,0,5.48,1.52.12,3.18-.24,4.64-.24,7.63,0,13.92-1.47,17.77-7.5L91.42,57l19.19-9.52c9.6-3.16,16.42,6.89,9.35,13.87A251.41,251.41,0,0,1,77.23,86.54c-10.58,6.44-21.17,6.22-31.76,0L29.83,78.48ZM98.1,24.28a1.08,1.08,0,0,0-1.53.27l-1,1.37a7,7,0,0,0-1.09-.36c-.38-.09-.74-.17-1.13-.23l-.3-1.8a1.16,1.16,0,0,0-.44-.71,1.05,1.05,0,0,0-.83-.17l-2.25.4a1.17,1.17,0,0,0-.71.44,1,1,0,0,0-.19.83L88.93,26a7.18,7.18,0,0,0-1,.54,7.83,7.83,0,0,0-.94.65l-1.53-1a1,1,0,0,0-.8-.19,1.07,1.07,0,0,0-.71.46l-1.3,1.85a1,1,0,0,0-.19.83,1,1,0,0,0,.46.7l1.37,1a6.33,6.33,0,0,0-.36,1.09A11.32,11.32,0,0,0,83.67,33l-1.8.31a1.09,1.09,0,0,0-.71.44,1,1,0,0,0-.17.82l.4,2.26a1.13,1.13,0,0,0,.44.71,1.06,1.06,0,0,0,.83.19l1.64-.29a6.3,6.3,0,0,0,.54,1,9,9,0,0,0,.65,1l-1.06,1.51a1.07,1.07,0,0,0-.19.81,1.11,1.11,0,0,0,.46.7l1.88,1.32a1.05,1.05,0,0,0,.82.18,1.17,1.17,0,0,0,.73-.44l1-1.4a6.44,6.44,0,0,0,1.1.36,8.91,8.91,0,0,0,1.12.23l.31,1.8a1.11,1.11,0,0,0,.44.71,1,1,0,0,0,.82.17l2.26-.4a1.13,1.13,0,0,0,.71-.44,1,1,0,0,0,.19-.82L95.77,42a6.68,6.68,0,0,0,1-.53c.33-.2.65-.43,1-.65l1.51,1a1,1,0,0,0,.82.19,1.06,1.06,0,0,0,.71-.46l1.32-1.88a1,1,0,0,0,.17-.82,1.15,1.15,0,0,0-.44-.73l-1.4-.95a6.46,6.46,0,0,0,.37-1.1,11.13,11.13,0,0,0,.23-1.12l1.8-.31a1.16,1.16,0,0,0,.71-.44,1,1,0,0,0,.17-.82l-.4-2.26a1.17,1.17,0,0,0-.44-.71,1.06,1.06,0,0,0-.83-.19l-1.64.28a10.19,10.19,0,0,0-.54-1,7.11,7.11,0,0,0-.65-.94l1-1.53a1,1,0,0,0,.2-.8,1.14,1.14,0,0,0-.46-.71l-1.86-1.3-.06,0ZM78,5.86a2.6,2.6,0,0,1,.78.73l2,2.8h0a2.84,2.84,0,0,1,.44.95,2.53,2.53,0,0,1,0,1.06,2.73,2.73,0,0,1-.37,1,2.38,2.38,0,0,1-.74.74l-1.66,1.21a.94.94,0,0,0,0,.16c.08.29.14.59.21.88a.43.43,0,0,1,0,0,8.05,8.05,0,0,1,.15.94l0,.11,1.74.29a2.6,2.6,0,0,1,1.76,1.1v0a2.47,2.47,0,0,1,.43.95,2.65,2.65,0,0,1,0,1.05l-.56,3.45a2.61,2.61,0,0,1-1.09,1.78,2.65,2.65,0,0,1-1,.44,2.7,2.7,0,0,1-1.06,0l-2-.33c0,.05-.07.11-.09.15-.16.27-.33.53-.51.8s-.36.54-.54.77l-.07.09,1,1.42,0,.06a2.48,2.48,0,0,1,.41,1,2.64,2.64,0,0,1,0,1.05,2.72,2.72,0,0,1-.36,1,2.75,2.75,0,0,1-.7.79l0,0-2.82,2a2.83,2.83,0,0,1-1,.46,2.44,2.44,0,0,1-1.08,0,3,3,0,0,1-1-.37,2.59,2.59,0,0,1-.76-.75l-1.18-1.65a.41.41,0,0,1-.16,0c-.29.07-.6.15-.92.21s-.62.11-.94.16a.29.29,0,0,1-.13,0l-.28,1.73a2.44,2.44,0,0,1-.38,1,2.48,2.48,0,0,1-.72.76l0,0a2.71,2.71,0,0,1-.95.43,2.85,2.85,0,0,1-1.05,0l-3.45-.57a2.6,2.6,0,0,1-1.78-1.08,2.65,2.65,0,0,1-.44-1,2.69,2.69,0,0,1,0-1.06l.34-2a.75.75,0,0,1-.15-.09l-.8-.5c-.28-.2-.54-.37-.77-.55l-.09-.07-1.42,1-.06,0a2.48,2.48,0,0,1-1,.41,2.64,2.64,0,0,1-1.05,0,2.77,2.77,0,0,1-1-.36,3,3,0,0,1-.78-.69l0,0-2-2.86a2.84,2.84,0,0,1-.44-1,2.52,2.52,0,0,1,0-1.06,2.79,2.79,0,0,1,.37-1,3.18,3.18,0,0,1,.75-.76l1.65-1.17a.51.51,0,0,1,0-.17c-.07-.29-.15-.6-.21-.92s-.13-.62-.16-.93V20l-1.73-.28a2.68,2.68,0,0,1-1-.37,2.77,2.77,0,0,1-.76-.73v0a2.47,2.47,0,0,1-.43-1,2.85,2.85,0,0,1,0-1l.56-3.45a2.64,2.64,0,0,1,1.09-1.78,2.65,2.65,0,0,1,1-.44,2.7,2.7,0,0,1,1.06,0l2,.33.09-.15c.16-.27.33-.53.51-.8s.36-.54.55-.77l.06-.09L52.45,8A2.58,2.58,0,0,1,52,7,2.58,2.58,0,0,1,52,6a2.55,2.55,0,0,1,.38-1,2.59,2.59,0,0,1,.73-.78l2.8-2v0a3,3,0,0,1,1-.44,2.52,2.52,0,0,1,1.06,0,2.79,2.79,0,0,1,1,.37,2.61,2.61,0,0,1,.74.74l1.21,1.67L61,4.39l.91-.22c.31-.07.62-.11.94-.16,0,0,.08,0,.13,0l.28-1.73a2.44,2.44,0,0,1,.38-1,2.51,2.51,0,0,1,.73-.76v0a2.79,2.79,0,0,1,.95-.43,3.08,3.08,0,0,1,1.05,0L69.83.6a2.92,2.92,0,0,1,1,.36,2.44,2.44,0,0,1,.77.73,2.63,2.63,0,0,1,.45,1,3,3,0,0,1,0,1.07l-.33,2,.15.08.79.51c.28.19.54.37.78.55l.08.06,1.44-1a2.45,2.45,0,0,1,1-.44,2.71,2.71,0,0,1,1.06,0,2.54,2.54,0,0,1,1,.38v0Zm-11.2,7a5.77,5.77,0,0,0-1.14-.3,6.58,6.58,0,0,0-1.17-.08,7.09,7.09,0,0,0-1.07.14l-.07,0a5.72,5.72,0,0,0-1.08.38,5.19,5.19,0,0,0-1,.54,4.76,4.76,0,0,0-.82.73,6,6,0,0,0-.71.91,6.18,6.18,0,0,0-.51,1,5.88,5.88,0,0,0-.37,2.31A6.83,6.83,0,0,0,59,19.57a.64.64,0,0,1,0,.07,6.09,6.09,0,0,0,.38,1.09,5.19,5.19,0,0,0,.54.95,4.76,4.76,0,0,0,.73.82,5.35,5.35,0,0,0,.91.7,5.49,5.49,0,0,0,1,.51,6.14,6.14,0,0,0,2.31.38A7.12,7.12,0,0,0,66,24s0,0,.06,0a6.2,6.2,0,0,0,2-.92,5.22,5.22,0,0,0,.82-.73,5.78,5.78,0,0,0,.7-.91,5.49,5.49,0,0,0,.51-1,5.16,5.16,0,0,0,.3-1.14A5.12,5.12,0,0,0,70.54,18,7.12,7.12,0,0,0,70.41,17s0,0,0-.07A5.72,5.72,0,0,0,70,15.82a6.41,6.41,0,0,0-.54-1,5.7,5.7,0,0,0-.73-.82,6.62,6.62,0,0,0-.91-.7,7.06,7.06,0,0,0-1-.51Zm-2-4.53a9.95,9.95,0,1,1-9.94,10A9.95,9.95,0,0,1,64.75,8.3ZM91.54,29.6a4.45,4.45,0,0,1,1.78,0,4.51,4.51,0,0,1,1.57.69,4.37,4.37,0,0,1,1.18,1.24,4,4,0,0,1,.63,1.65,4.64,4.64,0,0,1,0,1.78A4.91,4.91,0,0,1,96,36.57a4.7,4.7,0,0,1-1.25,1.18,4,4,0,0,1-1.64.63,4.44,4.44,0,0,1-1.78,0,4.6,4.6,0,0,1-1.57-.68,4.74,4.74,0,0,1-1.19-1.25,4.37,4.37,0,0,1-.63-1.64A4.84,4.84,0,0,1,88,33a4.62,4.62,0,0,1,.69-1.57,4.69,4.69,0,0,1,1.24-1.19,4.36,4.36,0,0,1,1.65-.63ZM12.42,44.72A3.23,3.23,0,1,1,9.19,48a3.22,3.22,0,0,1,3.23-3.23Z"/></svg>
