<svg width="250" height="56" viewBox="0 0 250 56" fill="none" xmlns="http://www.w3.org/2000/svg">
<path fill-rule="evenodd" clip-rule="evenodd" d="M10 0C4.47715 0 0 4.47715 0 10V46C0 51.5228 4.47716 56 10 56H240C245.523 56 250 51.5229 250 46V10C250 4.47715 245.523 0 240 0H10ZM58.9453 33.5C59.1016 33.9219 59.1797 34.3984 59.1797 34.9297C59.1797 35.5391 59.0312 36.1016 58.7344 36.6172C58.4375 37.1172 57.9688 37.5234 57.3281 37.8359C56.6875 38.1328 55.8438 38.2812 54.7969 38.2812C53.8281 38.2812 52.9688 38.1953 52.2188 38.0234C51.4688 37.8359 50.8359 37.5391 50.3203 37.1328C49.8047 36.7109 49.4141 36.1562 49.1484 35.4688C48.8828 34.7812 48.75 33.9375 48.75 32.9375H40.5C40.5 34.9531 40.9062 36.6953 41.7188 38.1641C42.5469 39.6172 43.6484 40.8125 45.0234 41.75C46.3984 42.6719 47.9297 43.3594 49.6172 43.8125C51.3203 44.25 53.0469 44.4688 54.7969 44.4688C56.7031 44.4688 58.4297 44.2578 59.9766 43.8359C61.5234 43.4141 62.8516 42.7969 63.9609 41.9844C65.0703 41.1562 65.9219 40.1484 66.5156 38.9609C67.1094 37.7734 67.4062 36.4141 67.4062 34.8828C67.4062 33.4453 67.1484 32.1562 66.6328 31.0156C66.1328 29.875 65.3906 28.8594 64.4062 27.9688C63.4375 27.0625 62.2422 26.2578 60.8203 25.5547C59.4141 24.8359 57.8047 24.1875 55.9922 23.6094C55.0234 23.2969 54.1484 22.9766 53.3672 22.6484C52.6016 22.3203 51.9453 21.9766 51.3984 21.6172C50.8672 21.2578 50.4531 20.875 50.1562 20.4688C49.875 20.0469 49.7344 19.5781 49.7344 19.0625C49.7344 18.4375 49.9141 17.8672 50.2734 17.3516C50.6328 16.8203 51.1641 16.3984 51.8672 16.0859C52.5703 15.7734 53.4375 15.6172 54.4688 15.6172C55.5312 15.6172 56.4141 15.8047 57.1172 16.1797C57.8203 16.5547 58.3438 17.0703 58.6875 17.7266C59.0469 18.3828 59.2266 19.1406 59.2266 20H67.4062C67.4062 17.8438 66.8594 15.9766 65.7656 14.3984C64.6875 12.8047 63.1875 11.5781 61.2656 10.7188C59.3594 9.84375 57.1562 9.40625 54.6562 9.40625C52.7656 9.40625 51.0234 9.63281 49.4297 10.0859C47.8359 10.5234 46.4453 11.1641 45.2578 12.0078C44.0859 12.8359 43.1719 13.8438 42.5156 15.0312C41.8594 16.2031 41.5312 17.5234 41.5312 18.9922C41.5312 20.5234 41.8516 21.8672 42.4922 23.0234C43.1328 24.1641 44 25.1641 45.0938 26.0234C46.1875 26.8672 47.4297 27.6094 48.8203 28.25C50.2109 28.875 51.6562 29.4375 53.1562 29.9375C54.4375 30.3594 55.4688 30.7656 56.25 31.1562C57.0469 31.5312 57.6562 31.9062 58.0781 32.2812C58.5 32.6562 58.7891 33.0625 58.9453 33.5ZM95.1328 44V37.6719H79.875V29.5391H92.7891V23.4219H79.875V16.2266H95.2031V9.875H79.875H76.9453H71.6484V44H76.9453H79.875H95.1328ZM121.055 44V37.6719H106.734V9.875H98.5078V44H103.805H106.734H121.055ZM148.008 44V37.6719H132.75V29.5391H145.664V23.4219H132.75V16.2266H148.078V9.875H132.75H129.82H124.523V44H129.82H132.75H148.008ZM178.992 32.4453H170.789C170.758 33.7266 170.508 34.7812 170.039 35.6094C169.57 36.4219 168.906 37.0312 168.047 37.4375C167.188 37.8281 166.133 38.0234 164.883 38.0234C163.758 38.0234 162.805 37.8359 162.023 37.4609C161.258 37.0703 160.633 36.4688 160.148 35.6562C159.664 34.8438 159.312 33.7969 159.094 32.5156C158.875 31.2344 158.766 29.6875 158.766 27.875V25.9766C158.766 24.1641 158.883 22.6172 159.117 21.3359C159.367 20.0391 159.742 18.9844 160.242 18.1719C160.742 17.3594 161.367 16.7656 162.117 16.3906C162.867 16.0156 163.75 15.8281 164.766 15.8281C166.219 15.8281 167.383 16.0469 168.258 16.4844C169.133 16.9219 169.773 17.5781 170.18 18.4531C170.586 19.3125 170.805 20.3828 170.836 21.6641H179.039C178.836 19.3047 178.172 17.2031 177.047 15.3594C175.922 13.5 174.336 12.0391 172.289 10.9766C170.242 9.91406 167.734 9.38281 164.766 9.38281C162.609 9.38281 160.648 9.76562 158.883 10.5312C157.117 11.2969 155.602 12.4062 154.336 13.8594C153.086 15.2969 152.117 17.0469 151.43 19.1094C150.758 21.1562 150.422 23.4609 150.422 26.0234V27.875C150.422 30.4375 150.742 32.7422 151.383 34.7891C152.039 36.8359 152.984 38.5781 154.219 40.0156C155.469 41.4531 156.984 42.5547 158.766 43.3203C160.562 44.0859 162.602 44.4688 164.883 44.4688C167.695 44.4688 170.133 43.9688 172.195 42.9688C174.273 41.9531 175.898 40.5391 177.07 38.7266C178.242 36.9141 178.883 34.8203 178.992 32.4453ZM198.703 44V16.2266H208.969V9.875H198.703H190.477H180.445V16.2266H190.477V44H198.703Z" fill="#FFFF00"/>
</svg>
