<svg width="120" height="54" viewBox="0 0 60 27" fill="none" xmlns="http://www.w3.org/2000/svg">
<path fill-rule="evenodd" clip-rule="evenodd" d="M3.83301 0H56.167C58.2764 0 60 1.37334 60 3.05403V23.9421C60 25.6228 58.2764 26.9961 56.167 26.9961H3.83301C1.72363 27 0 25.6267 0 23.946V3.05403C0 1.37334 1.72363 0 3.83301 0ZM20.9766 10.3254H16.0645V9.19323C16.0645 8.66412 16.001 8.32565 15.874 8.1817C15.752 8.03775 15.542 7.96383 15.2539 7.96383C14.9365 7.96383 14.6973 8.0611 14.5361 8.25562C14.375 8.45014 14.292 8.74193 14.292 9.13876C14.292 9.64841 14.3848 10.0336 14.5703 10.2903C14.751 10.5471 15.249 10.8584 16.0645 11.228C18.4082 12.2823 19.8877 13.1499 20.4932 13.8268C21.1035 14.4999 21.4111 15.5892 21.4111 17.087C21.4111 18.1764 21.2402 18.9817 20.9033 19.503C20.5664 20.0205 19.9121 20.4523 18.9404 20.7986C17.9736 21.1487 16.8457 21.3238 15.5566 21.3238C14.1406 21.3238 12.9395 21.1215 11.9385 20.7169C10.9424 20.3122 10.2881 19.7987 9.97559 19.1762C9.66797 18.5499 9.51172 17.6628 9.51172 16.5151V15.5114H14.4189V17.3749C14.4189 17.9507 14.4873 18.3164 14.624 18.4837C14.7607 18.6471 15.0049 18.7288 15.3564 18.7288C15.708 18.7288 15.9668 18.6238 16.1426 18.4176C16.3135 18.2114 16.4014 17.9001 16.4014 17.4955C16.4014 16.5968 16.2402 16.0055 15.9131 15.7293C15.5762 15.453 14.751 14.9862 13.4424 14.3365C12.1338 13.6829 11.2646 13.2043 10.8398 12.9048C10.415 12.6091 10.0586 12.1967 9.78027 11.6754C9.50195 11.154 9.36035 10.4849 9.36035 9.67176C9.36035 8.50072 9.55566 7.64092 9.95605 7.10014C10.3564 6.55937 10.9912 6.1353 11.8799 5.82795C12.7686 5.52061 13.833 5.36888 15.0879 5.36888C16.46 5.36888 17.6221 5.53617 18.5938 5.87075C19.5557 6.20533 20.1953 6.6255 20.5078 7.13516C20.8203 7.64092 20.9766 8.50461 20.9766 9.71844V10.3254ZM23.0859 5.67622H31.9043V8.73415H28.3838V11.6598H31.6748V14.566H28.3838V17.9352H32.2656V20.9931H23.0859V5.67622ZM39.0625 5.67622V17.9352H42.251V20.9931H33.7646V5.67622H39.0625ZM48.8379 5.67622V17.9352H52.0264V20.9931H43.5449V5.67622H48.8379Z" fill="#FFE600"/>
</svg>
