<svg width="300" height="300" viewBox="0 0 100 100" fill="none" xmlns="http://www.w3.org/2000/svg">
<g clip-path="url(#clip0_10_19)">
<path d="M50 0C56.7708 0 63.2243 1.35091 69.1244 3.79232L69.2139 3.83301C75.293 6.36393 80.7699 10.0667 85.3516 14.6566C89.9577 19.2546 93.6686 24.764 96.2077 30.8919C98.6572 36.7839 100 43.2454 100 50.0081C100 56.779 98.6491 63.2324 96.2077 69.1325L96.167 69.222C93.6279 75.3011 89.9333 80.778 85.3434 85.3597C80.7454 89.9658 75.236 93.6768 69.1081 96.2158C63.2161 98.6654 56.7546 100.008 49.9919 100.008C43.2292 100.008 36.7676 98.6572 30.8675 96.2158L30.778 96.1751C24.6989 93.6442 19.222 89.9414 14.6403 85.3597L14.6484 85.3434C10.0423 80.7373 6.33138 75.236 3.79232 69.1244C1.35091 63.2243 0 56.7708 0 50C0 43.2292 1.35091 36.7757 3.79232 30.8757L3.83301 30.7861C6.36393 24.707 10.0667 19.2301 14.6484 14.6484H14.6566C19.2627 10.0423 24.764 6.33138 30.8838 3.79232C36.7757 1.35091 43.2292 0 50 0ZM13.8265 76.8799L14.0218 76.766C18.8232 74.0885 31.3232 73.2015 36.5153 69.5801C36.8978 69.0104 37.3047 68.1803 37.7035 67.277C38.2975 65.918 38.8428 64.4287 39.1846 63.4196C37.736 61.7106 36.4909 59.7819 35.3027 57.8857L31.3721 51.6276C29.9398 49.4792 29.1911 47.526 29.1423 45.9147C29.1178 45.1579 29.248 44.4743 29.5329 43.8639C29.8258 43.2292 30.2734 42.7002 30.8838 42.2933C31.1686 42.098 31.486 41.9352 31.8359 41.8132C31.5755 38.4196 31.486 34.1471 31.6488 30.5664C31.7301 29.7201 31.901 28.8656 32.1289 28.0192C33.138 24.4303 35.6527 21.5413 38.7695 19.5557C40.4867 18.457 42.3747 17.6351 44.3359 17.0817C45.5892 16.7236 43.2699 12.736 44.5638 12.5977C50.8057 11.9548 60.9049 17.6595 65.2669 22.3714C67.4479 24.7314 68.8232 27.8646 69.1162 32.0068L68.8721 42.2119C69.9626 42.5456 70.6624 43.2373 70.9391 44.3522C71.2565 45.5973 70.9147 47.3389 69.8568 49.7233C69.8405 49.764 69.8161 49.8128 69.7917 49.8535L65.3076 57.2347C63.6637 59.9447 61.9873 62.6709 59.8145 64.8112C60.0179 65.1042 60.2214 65.389 60.4167 65.6738C61.3037 66.9759 62.1989 68.278 63.3464 69.4417C63.387 69.4824 63.4196 69.5231 63.444 69.5638C68.6035 73.2096 81.1605 74.0967 85.9782 76.7822L86.1735 76.8962C91.7643 69.3929 95.0684 60.0911 95.0684 50.0163C95.0684 37.5732 90.0228 26.3021 81.8685 18.1559C73.7305 9.99349 62.4593 4.94792 50.0163 4.94792C37.5732 4.94792 26.3021 9.99349 18.1559 18.1478C9.98535 26.2858 4.93978 37.557 4.93978 50C4.93978 60.0749 8.24382 69.3766 13.8265 76.8799Z" fill="#FFF500"/>
</g>
<defs>
<clipPath id="clip0_10_19">
<rect width="100" height="100" rx="50" fill="white"/>
</clipPath>
</defs>
</svg>
