<svg width="94" height="52" viewBox="0 0 47 26" fill="none" xmlns="http://www.w3.org/2000/svg">
<g clip-path="url(#clip0_7_98)">
<path fill-rule="evenodd" clip-rule="evenodd" d="M23.5 5.26638C25.2973 5.25997 27.0411 5.87506 28.4345 7.00685C29.8278 8.13864 30.7845 9.7171 31.1414 11.4733C31.4983 13.2294 31.2334 15.0547 30.3919 16.638C29.5504 18.2213 28.1842 19.4647 26.5263 20.1563C24.8683 20.8479 23.0211 20.945 21.2994 20.431C19.5777 19.917 18.088 18.8237 17.0842 17.3374C16.0803 15.8511 15.6245 14.0637 15.7942 12.2798C15.964 10.496 16.7489 8.82601 18.0152 7.55444C18.7331 6.83149 19.5872 6.25717 20.5285 5.8645C21.4698 5.47183 22.4797 5.26856 23.5 5.26638ZM0.401641 11.9399C1.61819 10.4663 2.9372 9.07989 4.34891 7.79087C9.84525 2.8029 16.0951 0.137308 22.5668 2.44793e-05C29.0384 -0.137259 35.6057 2.25758 41.825 7.36758C43.5308 8.7774 45.1337 10.3067 46.6214 11.9437C46.8525 12.2033 46.988 12.5336 47.0054 12.8803C47.0227 13.227 46.921 13.5692 46.717 13.8504C45.0619 16.2025 43.0814 18.3094 40.8343 20.1083C36.1405 23.8901 30.2961 25.9678 24.2612 26C18.1828 25.9842 12.2622 24.0691 7.33231 20.5239C4.69501 18.6563 2.33703 16.4248 0.328969 13.8962C0.10459 13.6153 -0.0114437 13.2635 0.00188776 12.9046C0.0152192 12.5457 0.157034 12.2035 0.401641 11.9399ZM6.37991 10.0332C5.35961 10.9575 4.39049 11.9364 3.47684 12.9657C5.12416 14.8873 7.00224 16.5997 9.0688 18.0643C13.4885 21.248 18.7971 22.9723 24.2497 22.995C29.6002 22.9622 34.7806 21.1173 38.941 17.763C40.6562 16.391 42.1975 14.8159 43.5309 13.0725C42.3872 11.8761 41.1739 10.748 39.8973 9.69378C34.2556 5.05664 28.3347 2.89061 22.6088 3.00883C16.883 3.12704 11.3331 5.52188 6.37991 10.0179V10.0332ZM21.5608 7.06251C22.1562 7.06251 22.7382 7.23852 23.2332 7.5683C23.7282 7.89807 24.114 8.36679 24.3419 8.91518C24.5697 9.46358 24.6293 10.067 24.5132 10.6492C24.397 11.2314 24.1103 11.7661 23.6893 12.1858C23.2684 12.6056 22.732 12.8914 22.1481 13.0072C21.5642 13.123 20.9589 13.0636 20.4089 12.8364C19.8588 12.6093 19.3887 12.2246 19.058 11.731C18.7272 11.2375 18.5507 10.6573 18.5507 10.0637C18.5501 9.66942 18.6277 9.27893 18.7788 8.91459C18.9299 8.55024 19.1516 8.2192 19.4312 7.94041C19.7108 7.66163 20.0428 7.44058 20.4083 7.28994C20.7737 7.13929 21.1654 7.06201 21.5608 7.06251Z" fill="#FFF500"/>
</g>
<defs>
<clipPath id="clip0_7_98">
<rect width="47" height="26" fill="white"/>
</clipPath>
</defs>
</svg>
