<svg width="92" height="54" viewBox="0 0 92 54" fill="#FFE600" xmlns="http://www.w3.org/2000/svg">
<path fill-rule="evenodd" clip-rule="evenodd" d="M10 0C4.47715 0 0 4.47715 0 10V44C0 49.5228 4.47715 54 10 54H82C87.5229 54 92 49.5228 92 44V10C92 4.47715 87.5229 0 82 0H10ZM54.2126 16.4066C51.7519 14.4042 48.6724 13.3159 45.4985 13.3273C43.6966 13.3311 41.9132 13.6908 40.251 14.3855C38.5887 15.0802 37.0803 16.0963 35.8125 17.3754C33.5763 19.6251 32.1902 22.5797 31.8904 25.7357C31.5906 28.8918 32.3957 32.054 34.1684 34.6836C35.9411 37.3133 38.5719 39.2476 41.6123 40.157C44.6528 41.0664 47.9148 40.8946 50.8427 39.671C53.7706 38.4473 56.1832 36.2475 57.6693 33.4462C59.1554 30.645 59.6232 27.4158 58.9929 24.3087C58.3625 21.2016 56.6732 18.409 54.2126 16.4066ZM11.6785 17.7937C9.18546 20.0742 6.85615 22.5272 4.70777 25.1343C4.27581 25.6006 4.02537 26.2061 4.00182 26.8411C3.97828 27.476 4.18319 28.0984 4.57944 28.5954C8.12559 33.069 12.2897 37.0171 16.947 40.3214C25.6531 46.5936 36.1085 49.9819 46.8427 50.0099C57.5 49.9529 67.821 46.277 76.1102 39.586C80.0785 36.4033 83.576 32.6759 86.4987 28.5144C86.859 28.0168 87.0386 27.4114 87.0079 26.7981C86.9772 26.1847 86.738 25.6002 86.3298 25.141C83.7026 22.2447 80.872 19.5391 77.8596 17.0448C66.8767 8.004 55.2791 3.76698 43.8504 4.00987C32.4217 4.25276 21.3848 8.9688 11.6785 17.7937ZM10.1384 26.9492C11.7519 25.1281 13.4633 23.3961 15.2651 21.7608V21.7338C24.0123 13.7793 33.8132 9.54228 43.9247 9.33313C54.0363 9.12398 64.4924 12.9562 74.4553 21.1604C76.7098 23.0255 78.8525 25.0215 80.8722 27.1381C78.5175 30.2226 75.7956 33.0093 72.7667 35.4367C65.4195 41.3712 56.2711 44.6353 46.8224 44.6934C37.1934 44.6531 27.8187 41.6025 20.0136 35.9697C16.3642 33.3785 13.0475 30.3489 10.1384 26.9492ZM45.0273 17.3999C44.1531 16.8164 43.1254 16.505 42.074 16.505C41.3757 16.5041 40.684 16.6409 40.0387 16.9074C39.3933 17.1739 38.8069 17.565 38.3131 18.0582C37.8193 18.5515 37.4278 19.1372 37.161 19.7818C36.8942 20.4264 36.7573 21.1173 36.7582 21.8148C36.7582 22.865 37.0699 23.8916 37.654 24.7648C38.2381 25.6379 39.0684 26.3185 40.0397 26.7204C41.011 27.1223 42.0799 27.2274 43.1111 27.0225C44.1422 26.8177 45.0894 26.312 45.8329 25.5694C46.5763 24.8268 47.0826 23.8807 47.2877 22.8507C47.4928 21.8207 47.3875 20.7531 46.9852 19.7828C46.5828 18.8126 45.9015 17.9833 45.0273 17.3999Z" />
</svg>
