<?xml version="1.0" encoding="iso-8859-1"?>
<!-- Generator: Adobe Illustrator 19.0.0, SVG Export Plug-In . SVG Version: 6.00 Build 0)  -->
<svg version="1.1" id="Layer_1" xmlns="http://www.w3.org/2000/svg" xmlns:xlink="http://www.w3.org/1999/xlink" x="0px" y="0px"
	 viewBox="0 0 512 512" style="enable-background:new 0 0 512 512;" xml:space="preserve">
<g>
	<g>
		<path fill="#FC9630" d="M159.45,72.393C155.649,31.845,121.433,0,79.908,0C35.846,0,0,35.846,0,79.907c0,44.06,35.846,79.907,79.907,79.907
			c41.284,0,75.355-31.471,79.486-71.682h16.87V72.393H159.45z M79.907,144.076c-35.383,0-64.169-28.785-64.169-64.169
			s28.786-64.169,64.169-64.169c35.384,0,64.17,28.786,64.17,64.169C144.077,115.289,115.29,144.076,79.907,144.076z"/>
	</g>
</g>
<g>
	<g>
		<path fill="#FC9630" d="M256.135,24.013v48.381h-15.873v15.738h15.873v47.671h48.127v16.329H320v-16.329h47.924V24.013H256.135z M352.187,120.064
			h-80.314V39.75h80.314V120.064z"/>
	</g>
</g>
<g>
	<g>
		<rect fill="#FC9630" x="304.262" y="159.475" width="15.738" height="24.131"/>
	</g>
</g>
<g>
	<g>
		<rect fill="#FC9630" x="183.607" y="72.393" width="48.262" height="15.738"/>
	</g>
</g>
<g>
	<g>
		<path fill="#FC9630" d="M479.475,336.177V320h-15.738v16.177h-31.509V512H512V336.177H479.475z M496.262,496.262h-48.296V351.915h48.296V496.262z
			"/>
	</g>
</g>
<g>
	<g>
		<path fill="#FC9630" d="M344.131,336.177V320h-15.738v16.177h-32.237V512h79.771V336.177H344.131z M360.191,496.262h-48.296V351.915h48.296
			V496.262z"/>
	</g>
</g>
<g>
	<g>
		<path fill="#FC9630" d="M183.607,336.177V320h-15.738v16.177h-31.797V512h79.771V336.177H183.607z M200.106,496.262H151.81V351.915h48.296
			V496.262z"/>
	</g>
</g>
<g>
	<g>
		<path fill="#FC9630" d="M48.262,336.177V320H32.525v16.177H0V512h79.771V336.177H48.262z M64.034,496.262H15.738V351.915h48.296V496.262z"/>
	</g>
</g>
<g>
	<g>
		<rect fill="#FC9630" x="328.393" y="280.131" width="15.738" height="31.475"/>
	</g>
</g>
<g>
	<g>
		<rect fill="#FC9630" x="463.738" y="223.475" width="15.738" height="88.131"/>
	</g>
</g>
<g>
	<g>
		<polygon fill="#FC9630" points="224.525,280.131 224.525,288.525 167.869,288.525 167.869,311.607 183.607,311.607 183.607,304.262 
			240.262,304.262 240.262,280.131 		"/>
	</g>
</g>
<g>
	<g>
		<path fill="#FC9630" d="M439.962,224.525v-16.415H320V192h-15.738v16.109H176.093v16.415h-16.618v15.738h16.618v15.602h48.431v15.873h15.738
			v-15.873h88.131v15.873h15.738v-15.873h95.831v-15.602h16.431v-15.738H439.962z M424.224,240.127H191.831v-16.28h232.393V240.127z
			"/>
	</g>
</g>
<g>
	<g>
		<polygon fill="#FC9630" points="32.525,224.525 32.525,311.607 48.262,311.607 48.262,240.262 152.131,240.262 152.131,224.525 		"/>
	</g>
</g>
<g>
</g>
<g>
</g>
<g>
</g>
<g>
</g>
<g>
</g>
<g>
</g>
<g>
</g>
<g>
</g>
<g>
</g>
<g>
</g>
<g>
</g>
<g>
</g>
<g>
</g>
<g>
</g>
<g>
</g>
</svg>
